<svg xmlns="http://www.w3.org/2000/svg" width="512" height="512" viewBox="0 0 512 512">
  <rect width="512" height="512" fill="#2E7D32" rx="85"/>
  <path d="M256 128C185.3 128 128 185.3 128 256s57.3 128 128 128 128-57.3 128-128S326.7 128 256 128zm0 213c-47.1 0-85-37.9-85-85s37.9-85 85-85 85 37.9 85 85-37.9 85-85 85z" fill="white"/>
  <path d="M256 171c-47.1 0-85 37.9-85 85s37.9 85 85 85 85-37.9 85-85-37.9-85-85-85zm0 128c-23.5 0-42.5-19-42.5-42.5s19-42.5 42.5-42.5 42.5 19 42.5 42.5-19 42.5-42.5 42.5z" fill="#2E7D32"/>
  <circle cx="256" cy="256" r="21" fill="white"/>
</svg>
