<svg xmlns="http://www.w3.org/2000/svg" width="192" height="192" viewBox="0 0 192 192">
  <rect width="192" height="192" fill="#2E7D32" rx="32"/>
  <path d="M96 48C69.5 48 48 69.5 48 96s21.5 48 48 48 48-21.5 48-48S122.5 48 96 48zm0 80c-17.7 0-32-14.3-32-32s14.3-32 32-32 32 14.3 32 32-14.3 32-32 32z" fill="white"/>
  <path d="M96 64c-17.7 0-32 14.3-32 32s14.3 32 32 32 32-14.3 32-32-14.3-32-32-32zm0 48c-8.8 0-16-7.2-16-16s7.2-16 16-16 16 7.2 16 16-7.2 16-16 16z" fill="#2E7D32"/>
  <circle cx="96" cy="96" r="8" fill="white"/>
</svg>
